# Blender v2.93.6 OBJ File: ''
# www.blender.org
mtllib asteroid_05.mtl
o ast5_lod0_ast5_lod0Shape
v 0.038001 -0.649838 0.711117
v 0.199480 -0.944471 0.213902
v 0.364209 -0.631384 0.632210
v 0.185530 0.745356 -0.557426
v -0.166513 0.932725 -0.723856
v 0.149068 0.896351 -0.410406
v -0.986322 0.390365 -0.319155
v -0.734417 -0.220603 -0.455280
v -0.859189 0.059174 0.117401
v -0.839289 0.946404 -0.152590
v -0.650365 0.866219 0.154034
v -0.565300 0.986784 0.084997
v 0.519757 0.114302 0.845583
v 0.258226 0.514217 0.856981
v -0.082915 0.360706 0.967960
v 0.910940 0.390609 0.318865
v 0.905286 0.167517 -0.205669
v 0.773784 0.577308 0.244982
v -0.107407 -0.475970 -0.867794
v 0.385137 -0.544825 -0.974831
v 0.497747 -0.906616 -0.824833
v 0.589718 -0.809897 0.145031
v 0.731511 -1.132194 -0.327364
v 0.719191 -0.639346 0.154707
v 0.257996 -0.097771 0.938044
v -0.918149 0.377957 0.070705
v -0.764266 0.718654 0.152719
v -0.900050 0.728943 -0.063562
v -0.104047 -0.572021 0.761072
v -0.400164 -0.446817 0.607323
v -0.344178 -0.743666 0.383820
v -0.378502 0.168443 0.930462
v -0.584204 0.068959 0.741619
v -0.139369 -0.162622 0.964272
v -0.814430 0.861117 -0.654276
v -0.895905 0.949023 -0.470137
v -0.413197 1.179060 -0.403200
v 0.281433 -0.328825 -1.004314
v 0.246305 0.045380 -0.943846
v 0.508798 -0.494226 -0.986393
v -0.895905 0.949023 -0.470137
v -0.814430 0.861117 -0.654276
v -0.945772 0.731205 -0.525112
v -0.965410 0.817381 -0.301674
v 0.733518 -0.973933 -0.772522
v 0.796283 -0.713291 -0.763435
v 0.570643 -0.015602 -0.744869
v -0.730395 0.294902 -0.800598
v -0.433576 0.444338 -0.865686
v -0.591626 0.011208 -0.893040
v -0.845633 0.231958 -0.693953
v -0.453615 -0.164056 -0.941095
v -0.511337 -0.573162 -0.463970
v 0.879953 -0.083256 0.377300
v 0.724368 -0.440944 0.522205
v 0.900433 -0.300766 0.190372
v 0.654351 0.289433 0.664473
v 0.269950 -0.446391 0.793409
v 0.581739 -0.093029 0.790474
v 0.826128 -0.050914 -0.542433
v 0.898124 -0.413217 -0.322361
v 0.929524 -0.028936 -0.299868
v 0.949942 -0.144643 -0.089342
v -0.142289 -0.842724 -0.663658
v -0.087417 -0.942265 0.214298
v -0.010116 0.688713 0.927729
v -0.183013 1.111015 0.442778
v -0.251220 0.682679 0.913681
v 0.264768 0.826486 0.639244
v 0.544193 0.582070 0.564358
v 0.608131 0.731284 0.267408
v 0.138116 -1.002723 -0.517576
v 0.252546 -0.981310 -0.689312
v 0.591292 -1.143830 -0.663094
v -0.547660 -0.467934 0.246965
v -0.387790 -0.771238 -0.370117
v -0.350742 -0.794347 -0.122499
v -0.318158 1.134776 -0.497625
v -0.117107 1.130301 -0.293882
v 0.263120 0.991185 0.149872
v -0.012966 1.148609 0.394400
v -0.042461 -0.936396 -0.578743
v -0.166324 -0.915477 -0.191572
v -0.275255 -0.550407 -0.760536
v -0.412880 1.027086 0.276554
v -0.367685 1.007136 0.451565
v -0.019549 1.117104 -0.019102
v -0.262692 1.166513 -0.090481
v 0.364209 -0.631384 0.632210
v 0.606697 -0.561745 0.532125
v -0.307077 0.823512 -0.836489
v -0.711003 0.624830 -0.800850
v 0.269950 -0.446391 0.793409
v 0.489889 0.491600 -0.430582
v 0.329386 0.758919 -0.319044
v 0.713810 0.459021 -0.115797
v 0.801897 -1.093059 -0.627304
v 0.666210 -1.179060 -0.547350
v 0.490810 -1.153120 -0.344973
v -0.426688 0.830631 0.669085
v -0.540521 0.348799 0.730135
v -0.734933 0.585635 0.351469
v -0.861039 0.368537 0.272879
v 0.846650 -0.354260 -0.593740
v 0.888260 -0.930008 -0.625612
v -0.752619 0.089651 0.571115
v 0.628185 0.176814 -0.546528
v -0.601555 -0.291716 0.490347
v -0.774165 1.080500 -0.291313
v -0.450953 1.168516 -0.142149
v -0.337843 1.127828 0.081417
v -0.615673 -0.454328 -0.051289
v 0.667485 0.093902 0.697098
v 0.986322 0.123838 0.089003
v 0.232278 0.383761 -0.763237
v -0.072139 0.504124 -0.893164
v 0.931378 -0.720559 -0.561296
v 0.876532 -1.004141 -0.486122
v -0.246691 0.426821 1.004316
v -0.378502 0.168443 0.930462
v -0.139369 -0.162622 0.964272
v -0.421635 0.677239 0.812019
v -0.373673 0.465561 0.931156
v -0.189225 0.272392 -0.943718
v -0.075269 1.114793 0.473240
v 0.147762 0.842302 0.769949
v -0.028003 0.010352 -0.969101
v 0.281433 -0.328825 -1.004314
v 0.384637 -1.092274 -0.118843
v 0.589718 -0.809897 0.145031
v -0.731653 -0.187510 0.292873
v 0.222121 1.021243 -0.093178
v 0.553015 0.795967 0.044777
v -0.936200 0.294072 -0.504072
v -0.824282 0.662664 -0.715277
v 0.666210 -1.179060 -0.547350
v 0.599313 -1.151150 -0.239187
v -0.021792 -0.110665 0.981091
v 0.112227 -0.405978 0.873369
v 0.770550 0.546906 0.371935
v -0.162883 -0.766081 0.490019
v 0.112227 -0.405978 0.873369
v 0.591292 -1.143830 -0.663094
v -0.433576 0.444338 -0.865686
v -0.595389 0.777585 -0.806261
v -0.614828 0.721905 0.510248
v -0.272385 -0.891701 0.095446
v 0.083811 0.278489 -0.957668
v -0.028003 0.010352 -0.969101
v 0.119475 -1.060483 -0.040422
v 0.888692 -0.605375 -0.227810
v -0.189225 0.272392 -0.943718
v -0.774165 1.080500 -0.291313
v 0.497747 -0.906616 -0.824833
v 0.912126 -0.367931 -0.052748
v -0.373673 0.465561 0.931156
v 0.066344 1.053607 -0.192186
v 0.385137 -0.544825 -0.974831
v -0.021792 -0.110665 0.981091
v 0.731511 -1.132194 -0.327364
v -0.595389 0.777585 -0.806261
vt 0.418590 0.490214
vt 0.392111 0.440984
vt 0.424404 0.430513
vt 0.729538 0.358266
vt 0.704724 0.327710
vt 0.722920 0.318680
vt 0.550271 0.501629
vt 0.552966 0.441483
vt 0.600696 0.466392
vt 0.617890 0.397688
vt 0.633143 0.392725
vt 0.648008 0.426729
vt 0.586400 0.276420
vt 0.551367 0.285030
vt 0.591075 0.231560
vt 0.697726 0.232302
vt 0.655591 0.262105
vt 0.651236 0.242802
vt 0.496751 0.615741
vt 0.453241 0.605917
vt 0.521526 0.574043
vt 0.726961 0.113951
vt 0.661687 0.150333
vt 0.660136 0.129912
vt 0.561781 0.222374
vt 0.605676 0.408450
vt 0.620284 0.430587
vt 0.582310 0.432831
vt 0.473671 0.424902
vt 0.463673 0.457603
vt 0.439153 0.421479
vt 0.513402 0.385674
vt 0.455837 0.378167
vt 0.499202 0.361489
vt 0.701939 0.431451
vt 0.689413 0.385468
vt 0.726807 0.421899
vt 0.783987 0.269500
vt 0.792540 0.203015
vt 0.802940 0.232308
vt 0.655796 0.488386
vt 0.638047 0.474602
vt 0.657091 0.461925
vt 0.638214 0.449652
vt 0.762697 0.169775
vt 0.771393 0.145347
vt 0.757178 0.241453
vt 0.622401 0.549824
vt 0.579786 0.539062
vt 0.605964 0.521140
vt 0.562477 0.552307
vt 0.515944 0.518521
vt 0.598210 0.507529
vt 0.623724 0.175085
vt 0.661660 0.186108
vt 0.643643 0.205011
vt 0.613799 0.241936
vt 0.595308 0.211398
vt 0.566880 0.179068
vt 0.730803 0.223511
vt 0.707224 0.217148
vt 0.688616 0.202552
vt 0.713278 0.183863
vt 0.486945 0.553128
vt 0.443095 0.484171
vt 0.618623 0.347025
vt 0.563370 0.322734
vt 0.574546 0.304722
vt 0.622001 0.269848
vt 0.650369 0.279346
vt 0.612096 0.298764
vt 0.455827 0.577927
vt 0.421393 0.592374
vt 0.453471 0.557368
vt 0.493207 0.519300
vt 0.480389 0.500799
vt 0.496872 0.454486
vt 0.699992 0.375498
vt 0.685110 0.357252
vt 0.654307 0.316001
vt 0.628785 0.336483
vt 0.471784 0.552483
vt 0.464593 0.515661
vt 0.518628 0.553684
vt 0.608567 0.358595
vt 0.622619 0.371026
vt 0.663258 0.368187
vt 0.663359 0.345269
vt 0.616756 0.163074
vt 0.590511 0.153785
vt 0.745292 0.367732
vt 0.636782 0.514533
vt 0.402553 0.411340
vt 0.701382 0.306416
vt 0.688480 0.261296
vt 0.716366 0.280501
vt 0.757528 0.115125
vt 0.757302 0.130554
vt 0.412813 0.558733
vt 0.580847 0.350643
vt 0.581289 0.396432
vt 0.569866 0.415547
vt 0.534405 0.364568
vt 0.739597 0.196960
vt 0.750864 0.145771
vt 0.530265 0.401702
vt 0.733956 0.251832
vt 0.500385 0.426283
vt 0.664231 0.385858
vt 0.675388 0.420315
vt 0.645289 0.370870
vt 0.512850 0.477743
vt 0.609417 0.225289
vt 0.671770 0.222894
vt 0.766089 0.329145
vt 0.755401 0.295207
vt 0.740087 0.162406
vt 0.740000 0.134599
vt 0.518115 0.287553
vt 0.522801 0.238884
vt 0.542913 0.304401
vt 0.561117 0.340821
vt 0.538929 0.323297
vt 0.600883 0.578243
vt 0.598384 0.304433
vt 0.620442 0.337895
vt 0.569714 0.594227
vt 0.524068 0.615360
vt 0.380595 0.501052
vt 0.411611 0.532549
vt 0.522479 0.437310
vt 0.674113 0.324129
vt 0.668340 0.289376
vt 0.598413 0.486490
vt 0.637360 0.498950
vt 0.398809 0.553284
vt 0.407246 0.584825
vt 0.535376 0.235478
vt 0.421346 0.400742
vt 0.644720 0.258311
vt 0.445516 0.452218
vt 0.547366 0.191388
vt 0.775724 0.121333
vt 0.783720 0.363724
vt 0.746826 0.395996
vt 0.581342 0.374571
vt 0.462469 0.487789
vt 0.778821 0.300823
vt 0.805611 0.288572
vt 0.432045 0.515357
vt 0.705236 0.164313
vt 0.792401 0.326119
vt 0.666651 0.436314
vt 0.794628 0.154294
vt 0.685896 0.182310
vt 0.521740 0.339732
vt 0.680849 0.338472
vt 0.804529 0.201369
vt 0.445262 0.370880
vt 0.388968 0.565451
vt 0.654260 0.520224
vn 0.1366 -0.8550 0.5002
vn 0.3139 -0.7296 0.6075
vn 0.0705 -0.7706 0.6334
vn 0.4029 0.6424 -0.6519
vn 0.5808 0.7094 -0.3993
vn 0.6037 0.5172 -0.6066
vn -0.8749 -0.4525 -0.1723
vn -0.9385 -0.3355 0.0813
vn -0.9830 -0.1835 0.0101
vn -0.6788 0.6013 0.4216
vn -0.5132 0.7533 0.4114
vn -0.6905 0.5939 0.4130
vn 0.4435 0.2771 0.8524
vn 0.2405 0.0845 0.9670
vn 0.4196 0.1483 0.8955
vn 0.8048 0.4571 -0.3785
vn 0.7929 0.5813 -0.1827
vn 0.9214 0.3018 0.2447
vn -0.1855 -0.3727 -0.9092
vn -0.1286 -0.4713 -0.8725
vn -0.2333 -0.4268 -0.8737
vn 0.7016 -0.5873 0.4036
vn 0.8141 -0.4630 0.3506
vn 0.5084 -0.6963 0.5067
vn 0.2740 -0.0820 0.9582
vn -0.7815 0.4043 0.4751
vn -0.8612 0.2765 0.4265
vn -0.9695 0.0196 0.2444
vn -0.6037 -0.4597 0.6513
vn -0.6763 -0.6510 0.3446
vn -0.3933 -0.5331 0.7490
vn -0.6494 -0.2568 0.7157
vn -0.4107 -0.3428 0.8449
vn -0.5035 -0.1537 0.8502
vn -0.5994 0.7135 -0.3629
vn -0.1576 0.8958 -0.4156
vn -0.3511 0.6757 -0.6482
vn 0.4024 0.2963 -0.8662
vn 0.5457 0.1276 -0.8282
vn -0.0423 -0.0654 -0.9970
vn -0.9352 0.0951 -0.3410
vn -0.9692 0.2230 0.1042
vn 0.6968 0.0797 -0.7128
vn 0.3752 -0.3681 -0.8507
vn 0.5809 0.3666 -0.7267
vn -0.1776 0.1246 -0.9762
vn -0.3527 -0.0011 -0.9357
vn -0.4543 0.0474 -0.8896
vn -0.5702 -0.3502 -0.7431
vn -0.7387 -0.5144 -0.4356
vn -0.8155 -0.2999 -0.4951
vn 0.7366 -0.3637 0.5702
vn 0.9203 -0.3146 0.2326
vn 0.8845 -0.0874 0.4582
vn 0.6401 0.3665 0.6752
vn 0.5983 -0.2449 0.7629
vn 0.3803 -0.4408 0.8131
vn 0.7285 0.3224 -0.6045
vn 0.9682 0.0939 -0.2319
vn 0.9946 -0.0916 -0.0487
vn 0.9957 -0.0027 -0.0922
vn -0.4098 -0.5614 -0.7190
vn -0.1767 -0.9011 0.3960
vn -0.2581 0.8567 0.4465
vn -0.1755 0.6197 0.7650
vn 0.1311 0.4922 0.8605
vn 0.6355 0.5215 0.5694
vn 0.5892 0.7618 0.2693
vn 0.5926 0.7235 0.3541
vn -0.3006 -0.7193 -0.6263
vn -0.1815 -0.8595 -0.4779
vn -0.3271 -0.9345 -0.1401
vn -0.7161 -0.6853 -0.1327
vn -0.7616 -0.6475 0.0242
vn -0.8118 -0.5645 0.1496
vn 0.1550 0.8490 -0.5052
vn 0.3921 0.8794 -0.2698
vn 0.5420 0.8295 0.1350
vn 0.3997 0.8997 0.1753
vn -0.3980 -0.8899 -0.2226
vn -0.4463 -0.8896 -0.0974
vn -0.5442 -0.5184 -0.6596
vn -0.5816 0.7275 0.3640
vn -0.5455 0.7998 0.2506
vn 0.0802 0.9965 0.0243
vn 0.3210 0.9447 -0.0675
vn 0.5218 -0.6349 0.5697
vn 0.3140 -0.7296 0.6075
vn -0.0509 0.5111 -0.8580
vn -0.3578 0.1054 -0.9278
vn 0.6594 0.6084 -0.4417
vn 0.7195 0.5622 -0.4077
vn 0.6894 0.5328 -0.4908
vn 0.1691 -0.9809 -0.0965
vn 0.6108 -0.7048 -0.3610
vn -0.3083 -0.9512 -0.0127
vn -0.4847 0.6855 0.5433
vn -0.8344 0.3041 0.4596
vn -0.9105 0.1337 0.3913
vn -0.7964 0.1918 0.5736
vn 0.9315 0.1132 -0.3458
vn 0.8717 -0.2091 -0.4432
vn -0.8631 -0.0662 0.5006
vn 0.6369 0.5094 -0.5787
vn -0.7610 -0.4644 0.4531
vn -0.2931 0.9276 0.2315
vn -0.4928 0.8696 0.0303
vn -0.3288 0.9175 0.2235
vn -0.8427 -0.5372 0.0349
vn 0.7990 0.0233 0.6009
vn 0.9947 0.0950 0.0402
vn 0.2549 0.3464 -0.9028
vn 0.5687 0.4496 -0.6888
vn 0.9859 0.0119 -0.1668
vn 0.8853 -0.3772 0.2719
vn -0.5034 -0.1537 0.8503
vn -0.4108 -0.3427 0.8449
vn -0.1166 0.0773 0.9902
vn -0.7119 0.3117 0.6293
vn -0.6545 0.1514 0.7408
vn -0.1330 0.1193 -0.9839
vn 0.3524 0.6377 0.6849
vn -0.0306 0.7762 0.6298
vn -0.0556 0.0522 -0.9971
vn 0.0376 -0.9394 0.3408
vn -0.8881 -0.4328 0.1544
vn 0.5372 0.7956 -0.2800
vn 0.6902 0.6685 -0.2770
vn -0.9407 -0.2337 -0.2458
vn -0.7539 0.0847 -0.6515
vn 0.2463 -0.8301 0.5002
vn 0.0820 -0.0955 0.9920
vn 0.0993 -0.4346 0.8951
vn 0.6367 0.5473 0.5432
vn -0.2554 -0.8062 0.5336
vn -0.1816 -0.8595 -0.4779
vn -0.2198 0.3590 -0.9071
vn -0.8061 0.3929 0.4426
vn -0.6417 -0.7628 0.0802
vn 0.3025 0.3023 -0.9039
vn -0.2222 -0.9727 0.0669
vn 0.9354 -0.2138 0.2817
vn 0.9444 -0.2891 0.1565
vn -0.6544 0.1514 0.7408
vn 0.4902 0.8126 -0.3154
vn 0.0819 -0.0955 0.9921
vn -0.2198 0.3589 -0.9071
usemtl PDXmat_ast5_lod0Shape.001
s 1
f 2/1/1 3/2/2 1/3/3
f 5/4/4 6/5/5 4/6/6
f 8/7/7 9/8/8 7/9/9
f 11/10/10 12/11/11 10/12/12
f 14/13/13 15/14/14 13/15/15
f 17/16/16 18/17/17 16/18/18
f 20/19/19 21/20/20 19/21/21
f 23/22/22 24/23/23 22/24/24
f 15/14/14 25/25/25 13/15/15
f 27/26/26 28/27/27 26/28/28
f 30/29/29 31/30/30 29/31/31
f 33/32/32 34/33/33 32/34/34
f 36/35/35 37/36/36 35/37/37
f 39/38/38 40/39/39 38/40/40
f 42/41/37 43/42/41 41/43/35
f 26/28/28 44/44/42 7/9/9
f 40/39/39 46/45/43 45/46/44
f 39/38/38 47/47/45 40/39/39
f 49/48/46 50/49/47 48/50/48
f 52/51/49 53/52/50 51/53/51
f 55/54/52 56/55/53 54/56/54
f 57/57/55 14/13/13 13/15/15
f 55/54/52 59/58/56 58/59/57
f 54/56/54 59/58/56 55/54/52
f 40/39/39 60/60/58 46/45/43
f 62/61/59 63/62/60 61/63/61
f 21/20/20 64/64/62 19/21/21
f 2/1/1 1/3/3 65/65/63
f 67/66/64 68/67/65 66/68/66
f 70/69/67 71/70/68 69/71/69
f 73/72/70 74/73/71 72/74/72
f 76/75/73 77/76/74 75/77/75
f 78/78/76 79/79/77 5/4/4
f 80/80/78 81/81/79 69/71/69
f 82/82/80 83/83/81 76/75/73
f 84/84/82 64/64/62 53/52/50
f 86/85/83 67/66/64 85/86/84
f 88/87/85 81/81/79 87/88/86
f 22/24/24 24/23/23 55/54/52
f 90/89/87 58/59/57 89/90/88
f 35/37/37 37/36/36 91/91/89
f 92/92/90 49/48/46 48/50/48
f 3/2/2 93/93/57 1/3/3
f 30/29/29 29/31/31 34/33/33
f 95/94/91 96/95/92 94/96/93
f 80/80/78 69/71/69 71/70/68
f 23/22/22 98/97/94 97/98/95
f 74/73/71 99/99/96 72/74/72
f 68/67/65 67/66/64 100/100/97
f 102/101/98 103/102/99 101/103/100
f 60/60/58 104/104/101 46/45/43
f 46/45/43 105/105/102 45/46/44
f 9/8/8 26/28/28 7/9/9
f 103/102/99 106/106/103 101/103/100
f 47/47/45 60/60/58 40/39/39
f 94/96/93 96/95/92 107/107/104
f 103/102/99 9/8/8 106/106/103
f 75/77/75 31/30/30 108/108/105
f 107/107/104 96/95/92 17/16/16
f 62/61/59 104/104/101 60/60/58
f 110/109/106 37/36/36 109/110/107
f 111/111/108 81/81/79 88/87/85
f 64/64/62 76/75/73 53/52/50
f 76/75/73 112/112/109 8/7/7
f 59/58/56 54/56/54 113/113/110
f 114/114/111 17/16/16 16/18/18
f 86/85/83 85/86/84 11/10/10
f 102/101/98 27/26/26 103/102/99
f 78/78/76 5/4/4 91/91/89
f 116/115/112 5/4/4 115/116/113
f 104/104/101 117/117/114 46/45/43
f 97/98/95 118/118/115 23/22/22
f 120/119/116 121/120/117 119/121/118
f 122/122/119 123/123/120 68/67/65
f 124/124/121 50/49/47 49/48/46
f 91/91/89 5/4/4 116/115/112
f 104/104/101 61/63/61 117/117/114
f 62/61/59 61/63/61 104/104/101
f 66/68/66 126/125/122 125/126/123
f 70/69/67 126/125/122 14/13/13
f 127/127/124 50/49/47 124/124/121
f 20/19/19 19/21/21 128/128/40
f 89/90/88 22/24/24 90/89/87
f 130/129/24 3/2/2 129/130/125
f 5/4/4 79/79/77 6/5/5
f 81/81/79 80/80/78 87/88/86
f 52/51/49 84/84/82 53/52/50
f 128/128/40 19/21/21 52/51/49
f 33/32/32 30/29/29 34/33/33
f 106/106/103 131/131/126 108/108/105
f 80/80/78 132/132/127 87/88/86
f 132/132/127 80/80/78 133/133/128
f 75/77/75 108/108/105 131/131/126
f 8/7/7 112/112/109 131/131/126
f 54/56/54 114/114/111 16/18/18
f 54/56/54 56/55/53 114/114/111
f 115/116/113 4/6/6 107/107/104
f 4/6/6 115/116/113 5/4/4
f 134/134/129 51/53/51 8/7/7
f 43/42/41 135/135/130 51/53/51
f 137/136/131 99/99/96 136/137/94
f 137/136/131 130/129/24 129/130/125
f 68/67/65 119/121/118 66/68/66
f 123/123/120 119/121/118 68/67/65
f 51/53/51 134/134/129 43/42/41
f 44/44/42 43/42/41 7/9/9
f 105/105/102 117/117/114 118/118/115
f 117/117/114 105/105/102 46/45/43
f 111/111/108 67/66/64 81/81/79
f 125/126/123 126/125/122 81/81/79
f 138/138/132 25/25/25 15/14/14
f 29/31/31 139/139/133 34/33/33
f 53/52/50 76/75/73 8/7/7
f 8/7/7 51/53/51 53/52/50
f 85/86/84 67/66/64 111/111/108
f 12/11/11 110/109/106 109/110/107
f 54/56/54 16/18/18 113/113/110
f 140/140/134 14/13/13 57/57/55
f 141/141/135 1/3/3 29/31/31
f 29/31/31 1/3/3 139/139/133
f 48/50/48 51/53/51 135/135/130
f 48/50/48 50/49/47 51/53/51
f 140/140/134 16/18/18 18/17/17
f 16/18/18 140/140/134 57/57/55
f 100/100/97 86/85/83 11/10/10
f 100/100/97 67/66/64 86/85/83
f 58/59/57 59/58/56 25/25/25
f 142/142/133 25/25/25 138/138/132
f 18/17/17 17/16/16 96/95/92
f 80/80/78 71/70/68 133/133/128
f 74/73/71 73/72/70 21/20/20
f 143/143/136 45/46/44 97/98/95
f 91/91/89 116/115/112 144/144/46
f 91/91/89 144/144/46 145/145/137
f 11/10/10 146/146/138 100/100/97
f 122/122/119 146/146/138 101/103/100
f 13/15/15 25/25/25 59/58/56
f 59/58/56 113/113/110 13/15/15
f 17/16/16 62/61/59 60/60/58
f 63/62/60 62/61/59 17/16/16
f 75/77/75 147/147/139 31/30/30
f 31/30/30 141/141/135 29/31/31
f 148/148/140 115/116/113 39/38/38
f 39/38/38 149/149/124 148/148/140
f 26/28/28 9/8/8 103/102/99
f 27/26/26 26/28/28 103/102/99
f 150/150/141 2/1/1 65/65/63
f 31/30/30 147/147/139 65/65/63
f 66/68/66 14/13/13 126/125/122
f 14/13/13 66/68/66 15/14/14
f 118/118/115 24/23/23 23/22/22
f 118/118/115 117/117/114 151/151/142
f 28/27/27 27/26/26 10/12/12
f 41/43/35 43/42/41 44/44/42
f 47/47/45 39/38/38 115/116/113
f 115/116/113 107/107/104 47/47/45
f 55/54/52 24/23/23 56/55/53
f 118/118/115 151/151/142 24/23/23
f 116/115/112 152/152/121 144/144/46
f 116/115/112 115/116/113 148/148/140
f 33/32/32 106/106/103 108/108/105
f 101/103/100 106/106/103 33/32/32
f 150/150/141 65/65/63 147/147/139
f 82/82/80 72/74/72 83/83/81
f 44/44/42 153/153/107 41/43/35
f 109/110/107 37/36/36 36/35/35
f 154/154/20 45/46/44 143/143/136
f 45/46/44 154/154/20 40/39/39
f 106/106/103 9/8/8 131/131/126
f 9/8/8 8/7/7 131/131/126
f 150/150/141 83/83/81 72/74/72
f 129/130/125 150/150/141 72/74/72
f 95/94/91 133/133/128 96/95/92
f 133/133/128 18/17/17 96/95/92
f 37/36/36 79/79/77 78/78/76
f 91/91/89 37/36/36 78/78/76
f 24/23/23 155/155/143 56/55/53
f 155/155/143 63/62/60 56/55/53
f 137/136/131 129/130/125 99/99/96
f 72/74/72 99/99/96 129/130/125
f 127/127/124 128/128/40 52/51/49
f 39/38/38 38/40/40 149/149/124
f 156/156/144 33/32/32 32/34/34
f 123/123/120 120/119/116 119/121/118
f 140/140/134 71/70/68 70/69/67
f 70/69/67 14/13/13 140/140/134
f 35/37/37 91/91/89 145/145/137
f 92/92/90 48/50/48 135/135/130
f 76/75/73 75/77/75 112/112/109
f 131/131/126 112/112/109 75/77/75
f 101/103/100 123/123/120 122/122/119
f 156/156/144 101/103/100 33/32/32
f 63/62/60 114/114/111 56/55/53
f 114/114/111 63/62/60 17/16/16
f 2/1/1 129/130/125 3/2/2
f 129/130/125 2/1/1 150/150/141
f 132/132/127 133/133/128 95/94/91
f 157/157/145 132/132/127 95/94/91
f 10/12/12 153/153/107 44/44/42
f 10/12/12 12/11/11 109/110/107
f 51/53/51 50/49/47 52/51/49
f 52/51/49 50/49/47 127/127/124
f 108/108/105 30/29/29 33/32/32
f 108/108/105 31/30/30 30/29/29
f 110/109/106 111/111/108 88/87/85
f 12/11/11 111/111/108 110/109/106
f 146/146/138 11/10/10 102/101/98
f 101/103/100 146/146/138 102/101/98
f 69/71/69 126/125/122 70/69/67
f 126/125/122 69/71/69 81/81/79
f 40/39/39 154/154/20 158/158/19
f 158/158/19 38/40/40 40/39/39
f 134/134/129 8/7/7 7/9/9
f 43/42/41 134/134/129 7/9/9
f 90/89/87 22/24/24 55/54/52
f 90/89/87 55/54/52 58/59/57
f 152/152/121 116/115/112 148/148/140
f 148/148/140 149/149/124 152/152/121
f 4/6/6 6/5/5 95/94/91
f 95/94/91 6/5/5 157/157/145
f 73/72/70 72/74/72 82/82/80
f 82/82/80 76/75/73 64/64/62
f 27/26/26 11/10/10 10/12/12
f 11/10/10 27/26/26 102/101/98
f 61/63/61 151/151/142 117/117/114
f 63/62/60 155/155/143 61/63/61
f 135/135/130 42/41/37 92/92/90
f 42/41/37 135/135/130 43/42/41
f 141/141/135 65/65/63 1/3/3
f 65/65/63 141/141/135 31/30/30
f 122/122/119 100/100/97 146/146/138
f 68/67/65 100/100/97 122/122/119
f 45/46/44 105/105/102 97/98/95
f 105/105/102 118/118/115 97/98/95
f 113/113/110 16/18/18 57/57/55
f 113/113/110 57/57/55 13/15/15
f 157/157/145 87/88/86 132/132/127
f 88/87/85 87/88/86 79/79/77
f 107/107/104 60/60/58 47/47/45
f 107/107/104 17/16/16 60/60/58
f 97/98/95 98/97/94 143/143/136
f 136/137/94 99/99/96 74/73/71
f 44/44/42 26/28/28 28/27/27
f 44/44/42 28/27/27 10/12/12
f 119/121/118 121/120/117 138/138/132
f 34/33/33 139/139/133 159/159/146
f 6/5/5 79/79/77 157/157/145
f 87/88/86 157/157/145 79/79/77
f 133/133/128 71/70/68 18/17/17
f 18/17/17 71/70/68 140/140/134
f 67/66/64 66/68/66 125/126/123
f 67/66/64 125/126/123 81/81/79
f 73/72/70 82/82/80 64/64/62
f 21/20/20 73/72/70 64/64/62
f 136/137/94 160/160/22 137/136/131
f 160/160/22 130/129/24 137/136/131
f 85/86/84 111/111/108 12/11/11
f 85/86/84 12/11/11 11/10/10
f 93/93/57 139/139/133 1/3/3
f 142/142/133 58/59/57 25/25/25
f 83/83/81 77/76/74 76/75/73
f 147/147/139 83/83/81 150/150/141
f 19/21/21 64/64/62 84/84/82
f 19/21/21 84/84/82 52/51/49
f 49/48/46 92/92/90 161/161/147
f 161/161/147 92/92/90 42/41/37
f 151/151/142 61/63/61 155/155/143
f 24/23/23 151/151/142 155/155/143
f 83/83/81 147/147/139 77/76/74
f 75/77/75 77/76/74 147/147/139
f 119/121/118 15/14/14 66/68/66
f 15/14/14 119/121/118 138/138/132
f 88/87/85 79/79/77 37/36/36
f 110/109/106 88/87/85 37/36/36
f 94/96/93 4/6/6 95/94/91
f 94/96/93 107/107/104 4/6/6
